<?xml version="1.0" encoding="UTF-8"?>
<svg xmlns="http://www.w3.org/2000/svg" xmlns:xlink="http://www.w3.org/1999/xlink" width="1114pt" height="1114pt" viewBox="0 0 1114 1114" version="1.1">
<g id="surface1">
<path style=" stroke:none;fill-rule:evenodd;fill:rgb(100%,100%,100%);fill-opacity:1;" d="M 1114 557 C 1114 864.621094 864.621094 1114 557 1114 C 249.378906 1114 0 864.621094 0 557 C 0 249.378906 249.378906 0 557 0 C 864.621094 0 1114 249.378906 1114 557 "/>
<path style=" stroke:none;fill-rule:evenodd;fill:rgb(97.299194%,86.299133%,19.198608%);fill-opacity:1;" d="M 1086.851563 557 C 1086.851563 849.628906 849.628906 1086.851563 557 1086.851563 C 264.371094 1086.851563 27.148438 849.628906 27.148438 557 C 27.148438 264.371094 264.371094 27.148438 557 27.148438 C 849.628906 27.148438 1086.851563 264.371094 1086.851563 557 "/>
<path style=" stroke:none;fill-rule:nonzero;fill:rgb(100%,100%,100%);fill-opacity:1;" d="M 1011.171875 468.65625 C 1009.480469 468.101563 1007.710938 467.8125 1005.898438 467.8125 C 1004.511719 467.8125 1003.109375 467.984375 1001.71875 468.34375 L 831.753906 511.925781 L 751.113281 213.722656 C 749.085938 206.214844 742.289063 201.265625 734.859375 201.265625 C 733.449219 201.265625 732.015625 201.445313 730.585938 201.816406 L 245.382813 328.742188 C 236.433594 331.082031 231.042969 340.199219 233.308594 349.171875 L 307.960938 644.714844 L 144.074219 688.253906 C 137.152344 690.089844 132.148438 696.105469 131.597656 703.246094 C 131.527344 704.191406 131.535156 705.128906 131.617188 706.050781 C 132.027344 712.257813 135.855469 717.816406 141.671875 720.363281 L 659.003906 946.898438 C 661.1875 947.855469 663.484375 948.3125 665.757813 948.3125 C 670.894531 948.3125 675.898438 945.964844 679.164063 941.679688 L 1019.550781 495.328125 C 1021.851563 492.445313 1023.230469 488.796875 1023.230469 484.820313 C 1023.230469 477.175781 1018.140625 470.71875 1011.171875 468.65625 "/>
<path style=" stroke:none;fill-rule:evenodd;fill:rgb(89.7995%,16.499329%,56.898499%);fill-opacity:1;" d="M 1005.640625 485.007813 L 1005.898438 484.664063 L 819.828125 532.375 L 734.847656 218.117188 L 249.648438 345.042969 L 328.371094 656.730469 L 148.398438 704.535156 L 148.964844 704.785156 L 148.429688 704.929688 L 665.765625 931.460938 L 1006.371094 484.820313 L 1005.640625 485.007813 "/>
<path style=" stroke:none;fill-rule:nonzero;fill:rgb(100%,100%,100%);fill-opacity:1;" d="M 996.066406 365.835938 C 996.019531 365.671875 995.976563 365.507813 995.925781 365.347656 L 993.800781 358.308594 C 993.484375 357.25 993.074219 356.222656 992.574219 355.234375 L 988.433594 347.019531 C 985.238281 340.667969 981.582031 334.90625 977.570313 329.898438 C 973.589844 324.925781 969.011719 320.285156 963.964844 316.117188 C 963.863281 316.03125 963.761719 315.949219 963.660156 315.871094 C 953.363281 307.703125 941.746094 301.308594 929.105469 296.847656 C 903.117188 287.726563 871.226563 287.953125 834.328125 297.527344 C 806.726563 304.683594 783.324219 315.71875 764.769531 330.316406 C 745.519531 345.464844 732.371094 362.164063 725.6875 379.953125 C 725.347656 380.863281 725.015625 381.773438 724.699219 382.691406 C 718.726563 376.277344 711.722656 370.816406 703.726563 366.351563 C 689.308594 358.296875 672.402344 353.769531 653.6875 352.902344 C 643.308594 352.308594 633.535156 352.5625 624.636719 353.667969 C 616.039063 354.730469 606.085938 356.71875 595.066406 359.574219 C 574.308594 364.960938 556.101563 372.296875 540.960938 381.386719 C 539.023438 382.550781 537.101563 383.757813 535.226563 385 C 532.734375 386.054688 530.511719 387.625 528.695313 389.574219 C 518.390625 397.238281 509.585938 406 502.488281 415.652344 C 490.738281 431.613281 483.816406 448.652344 481.75 466.570313 L 439.953125 415.847656 C 435.234375 410.121094 427.625 407.652344 420.441406 409.515625 L 344.671875 429.164063 C 337.753906 430.957031 332.414063 436.46875 330.847656 443.445313 L 324.484375 471.765625 C 320.566406 468.589844 316.238281 465.859375 311.5 463.585938 C 299.558594 457.851563 284.941406 455.050781 268.0625 455.300781 C 252.933594 455.007813 235.007813 457.605469 213.566406 463.164063 L 105.09375 491.296875 C 95.078125 493.894531 88.960938 504.003906 91.304688 514.078125 L 129.984375 680.496094 C 131.148438 685.507813 134.289063 689.835938 138.6875 692.5 C 141.691406 694.316406 145.113281 695.257813 148.566406 695.257813 C 150.167969 695.257813 151.777344 695.054688 153.355469 694.644531 L 384.441406 634.714844 C 392.003906 632.753906 397.605469 626.378906 398.578125 618.628906 L 400.015625 607.183594 L 449.046875 594.46875 L 455.65625 603.660156 C 460.253906 610.050781 468.304688 612.964844 475.933594 610.988281 L 549.820313 591.828125 C 556.128906 590.191406 561.164063 585.449219 563.175781 579.25 C 563.339844 578.753906 563.480469 578.25 563.597656 577.75 C 585.714844 582.234375 610.394531 581.007813 637.203125 574.058594 C 658.828125 568.449219 677.042969 559.945313 691.386719 548.761719 L 691.53125 548.671875 C 695.976563 551.769531 701.675781 552.9375 707.238281 551.488281 L 754.402344 539.257813 C 764.394531 536.667969 770.511719 526.597656 768.203125 516.53125 C 768.203125 516.53125 779.554688 507.308594 788.511719 510.496094 C 814.738281 519.835938 846.980469 519.65625 884.324219 509.96875 C 911.726563 502.863281 935.066406 491.800781 953.695313 477.09375 C 973.105469 461.769531 986.449219 444.09375 993.363281 424.550781 C 1000.378906 404.726563 1001.28125 384.96875 996.066406 365.835938 "/>
<path style=" stroke:none;fill-rule:nonzero;fill:rgb(6.698608%,39.99939%,68.598938%);fill-opacity:1;" d="M 851.277344 359.96875 C 862.621094 357.023438 872.292969 357.347656 880.035156 360.917969 C 887.792969 364.496094 893.933594 370.699219 898.292969 379.351563 C 905.082031 392.828125 906.652344 406.726563 902.964844 420.65625 C 899.34375 434.339844 889.140625 443.183594 871.78125 447.6875 C 850.113281 453.316406 835.003906 447.058594 825.601563 428.566406 C 818.339844 407.054688 817.84375 390.25 824.121094 378.617188 C 828.953125 369.664063 838.09375 363.390625 851.277344 359.972656 Z M 983.335938 369.902344 L 981.210938 362.867188 L 976.855469 354.109375 C 974.144531 348.730469 971.09375 343.902344 967.773438 339.761719 C 964.449219 335.613281 960.632813 331.753906 956.371094 328.234375 C 947.445313 321.15625 937.363281 315.605469 926.402344 311.734375 C 903.421875 303.675781 874.625 304.027344 840.804688 312.796875 C 815.324219 319.40625 793.871094 329.472656 777.042969 342.714844 C 760.089844 356.054688 748.628906 370.449219 742.972656 385.503906 C 737.3125 400.570313 736.132813 416.742188 739.46875 433.574219 L 744.449219 447.886719 L 746.5625 454.191406 L 746.742188 454.628906 C 756.25 473.511719 772.929688 487.304688 796.320313 495.632813 C 807.496094 499.613281 820.046875 501.601563 833.882813 501.601563 C 848.761719 501.601563 865.136719 499.296875 882.878906 494.695313 C 908.148438 488.144531 929.53125 478.054688 946.429688 464.710938 C 963.46875 451.265625 975.097656 435.984375 981.003906 419.289063 C 986.925781 402.550781 987.722656 385.960938 983.335938 369.902344 "/>
<path style=" stroke:none;fill-rule:nonzero;fill:rgb(6.698608%,39.99939%,68.598938%);fill-opacity:1;" d="M 206.316406 562.273438 L 197.4375 528.527344 C 197.4375 528.527344 214.175781 524.117188 224.203125 521.425781 C 238.628906 517.554688 249.457031 516.625 254.980469 525.464844 C 257.613281 529.675781 257.859375 539.140625 254.058594 543.824219 C 249.929688 548.917969 244.566406 551.851563 235.058594 554.816406 C 227.96875 557.023438 206.316406 562.273438 206.316406 562.273438 Z M 437.878906 543.832031 L 390.546875 556.105469 L 400.246094 489.796875 Z M 625.550781 452.8125 L 634.339844 489.972656 L 667.464844 480.472656 C 665.707031 485.738281 661.90625 493.652344 657.164063 497.898438 C 651.664063 502.820313 643.449219 506.902344 635.980469 508.839844 C 611.761719 515.125 595.636719 509.597656 586.667969 491.96875 C 578.785156 469.949219 577.960938 452.78125 584.214844 440.941406 C 588.972656 431.9375 598.113281 425.625 611.382813 422.183594 C 630.007813 417.355469 643.007813 420.554688 651.121094 431.960938 L 652.441406 433.808594 L 729.023438 413.945313 L 726.742188 409.433594 C 720.4375 396.910156 710.949219 387.050781 698.550781 380.125 C 686.28125 373.277344 671.722656 369.417969 655.300781 368.65625 C 645.875 368.113281 637.050781 368.339844 629.085938 369.324219 C 621.167969 370.304688 611.902344 372.164063 601.546875 374.847656 C 582.253906 379.851563 565.445313 386.605469 551.589844 394.917969 C 537.628906 403.296875 526.230469 413.421875 517.714844 425.007813 C 501.011719 447.695313 495.722656 472.902344 501.984375 499.910156 L 504.035156 508.921875 L 508.898438 519.492188 C 509.84375 521.367188 510.855469 523.1875 511.929688 524.949219 L 428.960938 424.257813 L 349.203125 444.941406 L 334.171875 511.8125 C 333.042969 507.488281 331.597656 503.566406 329.863281 500.121094 C 324.820313 490.121094 317.195313 482.613281 307.191406 477.808594 C 297.390625 473.105469 285.023438 470.832031 270.613281 471.078125 C 256.9375 470.792969 239.953125 473.273438 220.046875 478.4375 L 108.460938 507.375 L 148.632813 680.222656 L 229.234375 659.320313 L 216.964844 607.4375 L 251.886719 598.382813 C 285.769531 589.59375 309.496094 577.347656 322.941406 561.753906 L 305.453125 639.554688 L 385.160156 618.882813 L 388.214844 594.597656 L 458.0625 576.480469 L 472.304688 596.28125 L 553.382813 575.253906 L 525.070313 540.898438 C 533.78125 548.859375 544.632813 554.980469 557.539063 559.199219 C 580.027344 566.554688 606.351563 566.410156 635.757813 558.785156 C 662.757813 551.785156 683.390625 540.078125 697.191406 523.949219 L 703.117188 536.914063 L 756.0625 523.183594 L 733.515625 424.8125 L 625.550781 452.8125 "/>
<path style=" stroke:none;fill-rule:nonzero;fill:rgb(59.999084%,14.099121%,53.69873%);fill-opacity:1;" d="M 510.949219 788.125 C 505.601563 788.125 500.46875 783.652344 499.722656 777.722656 C 498.898438 771.179688 500.84375 765.03125 503.125 759.109375 C 511.683594 736.894531 524.054688 717.109375 541.714844 700.945313 C 545.300781 697.664063 549.539063 695.03125 553.703125 692.46875 C 556.015625 691.042969 558.371094 690.019531 560.640625 690.019531 C 562.886719 690.019531 565.046875 691.019531 566.996094 693.621094 C 568.964844 691.964844 571.035156 691.152344 573.082031 691.152344 C 575.046875 691.152344 576.992188 691.898438 578.816406 693.359375 C 581.015625 695.117188 580.613281 697.28125 579.671875 699.429688 C 574.996094 710.078125 570.066406 720.625 565.660156 731.386719 C 563.609375 736.390625 562.53125 741.796875 561.050781 747.027344 C 560.941406 747.410156 561.152344 747.882813 561.300781 748.941406 C 563.570313 746.796875 565.714844 745.105469 567.457031 743.066406 C 580.730469 727.53125 593.933594 711.941406 607.132813 696.34375 C 609.511719 693.535156 611.378906 690.171875 614.136719 687.832031 C 625.652344 678.0625 636.875 667.675781 652.484375 664.640625 C 653.324219 664.476563 654.195313 664.40625 655.054688 664.40625 C 655.085938 664.40625 655.113281 664.40625 655.140625 664.40625 C 662.160156 664.449219 665.816406 668.488281 664.636719 675.371094 C 662.949219 685.1875 656.976563 692.132813 648.707031 697.097656 C 645.402344 699.078125 641.625 700.382813 637.914063 701.511719 C 637.726563 701.570313 637.527344 701.597656 637.320313 701.597656 C 636.136719 701.597656 634.695313 700.765625 633.40625 700.414063 C 633.929688 699.125 634.203125 697.644531 635.015625 696.574219 C 638.507813 691.941406 642.265625 687.507813 645.675781 682.816406 C 646.527344 681.644531 646.441406 679.785156 646.363281 678.078125 C 639.679688 680.484375 634.527344 684.476563 629.996094 689.289063 C 619.421875 700.53125 612.265625 713.652344 608.882813 728.722656 C 608.234375 731.609375 608.128906 734.722656 608.386719 737.679688 C 608.625 740.421875 609.875 741.71875 612 741.71875 C 612.667969 741.71875 613.421875 741.589844 614.257813 741.339844 C 626.476563 737.660156 636.699219 730.550781 645.113281 721.324219 C 658.730469 706.390625 671.746094 690.898438 684.753906 675.425781 C 687.210938 672.503906 688.402344 668.53125 690.265625 665.09375 C 694.300781 657.65625 699.761719 656.035156 706.5 656.035156 C 707.171875 656.035156 707.855469 656.054688 708.550781 656.082031 C 711.804688 656.210938 710.988281 658.480469 710.0625 660.488281 C 706.402344 668.40625 702.234375 676.140625 699.273438 684.3125 C 696.246094 692.664063 694.410156 701.445313 692.078125 710.046875 C 691.875 710.792969 691.660156 711.632813 691.808594 712.355469 C 692.082031 713.734375 692.238281 715.636719 693.152344 716.238281 C 693.371094 716.382813 693.671875 716.445313 694.011719 716.445313 C 694.945313 716.445313 696.207031 715.984375 697.074219 715.539063 C 698.628906 714.742188 700.121094 713.636719 701.324219 712.359375 C 714.578125 698.296875 727.820313 684.21875 740.917969 670.011719 C 742.503906 668.292969 743.652344 665.921875 744.3125 663.648438 C 756.433594 621.90625 782.289063 583.230469 816.308594 556.0625 C 819.308594 553.667969 821.75 552.480469 824.078125 552.480469 C 826.679688 552.480469 829.136719 553.957031 832.074219 556.878906 C 834.210938 559.007813 834.597656 561.371094 833.539063 563.914063 C 830.070313 572.269531 823.804688 584.808594 819.644531 592.8125 C 806.632813 617.851563 789.820313 640.308594 771.589844 661.757813 C 767.972656 666.007813 764.339844 670.285156 761.195313 674.882813 C 757.765625 679.894531 755.910156 685.519531 757.648438 691.722656 C 758.621094 695.195313 760.015625 696.890625 762.09375 696.890625 C 763.359375 696.890625 764.882813 696.257813 766.722656 695.011719 C 776.714844 688.226563 784.785156 679.359375 792.5 670.246094 C 804.632813 655.917969 816.351563 641.242188 828.246094 626.710938 C 828.945313 625.855469 829.640625 624.992188 830.492188 623.941406 C 833.804688 626.382813 834.460938 628.210938 832.585938 631.175781 C 816.511719 656.617188 800.566406 682.171875 780.203125 704.519531 C 776.75 708.308594 772.441406 711.707031 767.886719 714.027344 C 764.121094 715.949219 760.707031 716.898438 757.648438 716.898438 C 751.09375 716.898438 746.1875 712.539063 743.039063 704.027344 C 741.398438 699.585938 740.367188 694.917969 739.019531 690.222656 C 737.082031 692.925781 735.121094 696.003906 732.824219 698.808594 C 724.835938 708.566406 716.910156 718.390625 708.59375 727.871094 C 704.359375 732.695313 698.589844 735.332031 692.105469 735.960938 C 691.390625 736.027344 690.699219 736.0625 690.023438 736.0625 C 683.136719 736.0625 678.386719 732.460938 675.789063 725.566406 C 673.992188 720.796875 673.988281 715.949219 674.730469 711.035156 C 675.15625 708.191406 675.726563 705.367188 676.40625 701.554688 C 673.679688 705.03125 671.5625 707.785156 669.390625 710.496094 C 658.414063 724.222656 646.917969 737.484375 632.804688 748.117188 C 628.207031 751.578125 623.195313 754.671875 617.988281 757.125 C 613.921875 759.042969 610.324219 759.933594 607.179688 759.933594 C 598.339844 759.933594 593.125 752.894531 591.324219 741.988281 C 590.914063 739.484375 590.898438 736.914063 590.660156 733.863281 C 586.085938 740.148438 581.964844 746.238281 577.394531 751.964844 C 572.101563 758.585938 566.703125 765.175781 560.804688 771.246094 C 558.648438 773.464844 556.480469 774.539063 554.5 774.539063 C 551.671875 774.539063 549.226563 772.347656 547.757813 768.167969 C 546.332031 764.097656 545.828125 759.699219 544.949219 755.441406 C 544.621094 753.847656 544.414063 752.226563 544.148438 750.621094 C 543.609375 750.394531 543.066406 750.164063 542.523438 749.9375 C 542.160156 751.324219 542.125 752.929688 541.378906 754.066406 C 535.742188 762.648438 530.128906 771.25 524.148438 779.589844 C 522.320313 782.144531 519.46875 784.011719 516.933594 786.003906 C 515.058594 787.472656 512.988281 788.125 510.949219 788.125 M 561.980469 704.0625 C 559.390625 705.695313 556.503906 706.992188 554.257813 709.007813 C 539.550781 722.21875 529.59375 738.617188 522.65625 756.96875 C 522.148438 758.316406 522.167969 759.863281 521.941406 761.320313 C 522.335938 761.507813 522.730469 761.695313 523.121094 761.886719 C 538.410156 744.445313 549.957031 724.34375 562.859375 705.207031 C 562.566406 704.824219 562.273438 704.445313 561.980469 704.0625 M 811.230469 576.496094 C 793.640625 598.046875 779.636719 621.753906 768.835938 647.410156 C 776.234375 644.636719 811.210938 586.109375 811.230469 576.496094 "/>
<path style=" stroke:none;fill-rule:nonzero;fill:rgb(59.999084%,14.099121%,53.69873%);fill-opacity:1;" d="M 417.78125 804.960938 C 412.363281 804.753906 406.847656 803.5625 402.664063 799.464844 C 401.285156 798.113281 401.078125 795.179688 401.007813 792.949219 C 400.503906 776.722656 405.570313 761.894531 412.933594 747.746094 C 414.359375 745.015625 414.320313 743.191406 412.054688 741.140625 C 410.347656 739.59375 408.847656 737.785156 407.398438 735.984375 C 404.683594 732.605469 405.007813 729.378906 408.78125 727.21875 C 413.6875 724.402344 418.800781 721.894531 423.992188 719.644531 C 427.65625 718.054688 430.296875 715.746094 432.527344 712.425781 C 441.386719 699.226563 450.445313 686.160156 459.519531 673.105469 C 461.429688 670.363281 463.714844 667.886719 465.824219 665.285156 C 465.722656 665.070313 465.621094 664.855469 465.523438 664.640625 C 464.132813 665.011719 462.695313 665.261719 461.355469 665.769531 C 447.914063 670.863281 434.566406 676.226563 421.023438 681.035156 C 413.507813 683.699219 405.746094 685.792969 397.953125 687.480469 C 397.121094 687.664063 396.292969 687.753906 395.476563 687.753906 C 392.0625 687.753906 388.875 686.175781 386.535156 683.101563 C 383.59375 679.234375 383.414063 676.183594 386.921875 672.902344 C 390.867188 669.203125 395.164063 665.78125 399.695313 662.824219 C 405.597656 658.972656 411.835938 655.621094 418.027344 652.230469 C 419.535156 651.402344 421.421875 651.265625 424.011719 650.578125 C 423.082031 652.785156 422.53125 654.089844 421.761719 655.921875 C 427.1875 653.398438 432.191406 651.003906 437.253906 648.734375 C 460.246094 638.414063 483.660156 629.222656 508.199219 623.238281 C 518.820313 620.648438 529.570313 618.851563 540.546875 618.851563 C 541.917969 618.851563 543.292969 618.878906 544.671875 618.9375 C 553.910156 619.328125 562.046875 622.65625 569.742188 627.390625 C 570.546875 627.886719 571.050781 628.859375 571.691406 629.609375 C 570.90625 630.210938 570.210938 631.085938 569.324219 631.367188 C 563.789063 633.109375 558.195313 634.667969 552.652344 636.386719 C 530.484375 643.246094 508.316406 650.117188 486.171875 657.058594 C 483.089844 658.023438 480.136719 659.386719 476.703125 660.726563 C 482.355469 664.433594 482.367188 664.765625 478.996094 670 C 471.964844 680.933594 464.992188 691.90625 458.007813 702.871094 C 457.714844 703.332031 457.550781 703.875 456.875 705.386719 C 460.527344 704.183594 463.398438 703.238281 466.265625 702.289063 C 477.070313 698.710938 487.894531 695.160156 499.378906 694.578125 C 499.90625 694.550781 500.4375 694.539063 500.96875 694.539063 C 503.316406 694.539063 505.691406 694.789063 507.996094 695.199219 C 509.878906 695.53125 512.082031 696.1875 513.335938 697.476563 C 515.246094 699.449219 516.460938 702.097656 517.96875 704.457031 C 516.121094 705.484375 514.351563 706.695313 512.417969 707.515625 C 490.773438 716.703125 469.097656 725.816406 447.441406 734.980469 C 441.703125 737.40625 437.929688 741.484375 435.785156 747.511719 C 431.746094 758.875 427.167969 770.042969 422.921875 781.332031 C 421.492188 785.125 420.09375 788.976563 419.226563 792.921875 C 418.394531 796.699219 418.269531 800.632813 417.78125 804.960938 "/>
<path style=" stroke:none;fill-rule:nonzero;fill:rgb(59.999084%,14.099121%,53.69873%);fill-opacity:1;" d="M 565.734375 678.070313 C 564.878906 678.070313 564.058594 677.886719 563.679688 677.503906 C 562.765625 676.574219 562.386719 674.429688 562.757813 673.082031 C 563.269531 671.238281 564.492188 669.46875 565.773438 667.980469 C 574.269531 658.113281 580.757813 647.207031 583.875 634.425781 C 584.714844 630.996094 587.128906 628.984375 589.867188 628.984375 C 591.261719 628.984375 592.742188 629.507813 594.140625 630.628906 C 596.769531 632.742188 598.472656 636.007813 600.804688 639.027344 C 600.261719 642.332031 600.199219 645.34375 599.246094 648.035156 C 596.605469 655.5 591.683594 661.523438 585.5 666.230469 C 579.949219 670.457031 573.863281 674.003906 567.863281 677.601563 C 567.351563 677.910156 566.527344 678.070313 565.734375 678.070313 "/>
<path style=" stroke:none;fill-rule:nonzero;fill:rgb(59.999084%,14.099121%,53.69873%);fill-opacity:1;" d="M 711.183594 634.882813 C 708.429688 634.882813 706.527344 633.230469 706.695313 630.511719 C 706.914063 626.855469 707.617188 622.84375 709.4375 619.773438 C 711.765625 615.851563 715.253906 612.546875 718.554688 609.289063 C 719.78125 608.082031 721.148438 607.386719 722.59375 607.386719 C 723.800781 607.386719 725.0625 607.875 726.332031 608.960938 C 729.304688 611.507813 730.078125 613.585938 728.574219 617.1875 C 725.953125 623.453125 722.335938 629.015625 716.582031 632.902344 C 715.484375 633.644531 714.25 634.175781 713.695313 634.472656 C 712.808594 634.753906 711.960938 634.882813 711.183594 634.882813 "/>
<path style=" stroke:none;fill-rule:nonzero;fill:rgb(100%,100%,100%);fill-opacity:1;" d="M 516.804688 756.035156 C 516.410156 755.847656 516.015625 755.65625 515.625 755.46875 C 515.851563 754.015625 515.828125 752.46875 516.339844 751.117188 C 523.273438 732.769531 533.230469 716.367188 547.9375 703.15625 C 550.183594 701.140625 553.070313 699.84375 555.660156 698.210938 C 555.953125 698.59375 556.246094 698.976563 556.542969 699.359375 C 543.636719 718.492188 532.09375 738.59375 516.804688 756.035156 Z M 804.910156 570.648438 C 804.890625 580.257813 769.914063 638.785156 762.515625 641.558594 C 773.316406 615.902344 787.320313 592.195313 804.910156 570.648438 Z M 754.875 669.03125 C 758.019531 664.4375 761.652344 660.15625 765.269531 655.90625 C 783.503906 634.460938 800.3125 612.003906 813.324219 586.960938 C 817.484375 578.957031 823.753906 566.417969 827.222656 558.066406 C 828.277344 555.519531 827.894531 553.15625 825.753906 551.03125 C 820.183594 545.488281 816.335938 545.148438 809.988281 550.214844 C 775.972656 577.382813 750.113281 616.058594 737.996094 657.800781 C 737.335938 660.070313 736.183594 662.441406 734.601563 664.160156 C 721.5 678.367188 708.261719 692.445313 695.007813 706.507813 C 693.804688 707.78125 692.3125 708.890625 690.753906 709.691406 C 689.574219 710.296875 687.65625 710.929688 686.832031 710.386719 C 685.917969 709.785156 685.765625 707.882813 685.488281 706.507813 C 685.34375 705.78125 685.558594 704.941406 685.757813 704.191406 C 688.089844 695.59375 689.929688 686.8125 692.953125 678.464844 C 695.914063 670.289063 700.082031 662.554688 703.742188 654.640625 C 704.671875 652.628906 705.484375 650.359375 702.230469 650.230469 C 694.546875 649.921875 688.382813 651.066406 683.945313 659.242188 C 682.082031 662.679688 680.890625 666.652344 678.4375 669.574219 C 665.425781 685.050781 652.414063 700.539063 638.796875 715.472656 C 630.382813 724.699219 620.15625 731.8125 607.9375 735.484375 C 604.441406 736.539063 602.378906 735.429688 602.066406 731.828125 C 601.808594 728.871094 601.914063 725.757813 602.5625 722.871094 C 605.945313 707.804688 613.101563 694.679688 623.679688 683.441406 C 628.210938 678.625 633.363281 674.632813 640.042969 672.226563 C 640.121094 673.9375 640.210938 675.792969 639.359375 676.96875 C 635.945313 681.65625 632.1875 686.089844 628.695313 690.722656 C 627.882813 691.796875 627.609375 693.273438 627.089844 694.566406 C 628.605469 694.972656 630.324219 696.050781 631.597656 695.660156 C 635.304688 694.53125 639.085938 693.230469 642.390625 691.246094 C 650.65625 686.28125 656.632813 679.335938 658.316406 669.519531 C 659.5 662.636719 655.84375 658.597656 648.820313 658.554688 C 647.9375 658.550781 647.03125 658.617188 646.164063 658.789063 C 630.554688 661.824219 619.332031 672.210938 607.816406 681.980469 C 605.0625 684.320313 603.191406 687.683594 600.816406 690.492188 C 587.613281 706.089844 574.410156 721.683594 561.136719 737.214844 C 559.398438 739.253906 557.25 740.945313 554.984375 743.09375 C 554.832031 742.03125 554.625 741.5625 554.734375 741.179688 C 556.214844 735.945313 557.289063 730.539063 559.339844 725.535156 C 563.746094 714.777344 568.679688 704.230469 573.355469 693.578125 C 574.296875 691.429688 574.695313 689.269531 572.496094 687.507813 C 568.773438 684.523438 564.535156 684.523438 560.675781 687.769531 C 556.757813 682.539063 551.980469 683.78125 547.382813 686.617188 C 543.21875 689.183594 538.980469 691.8125 535.398438 695.09375 C 517.734375 711.257813 505.363281 731.042969 496.804688 753.261719 C 494.523438 759.183594 492.578125 765.328125 493.402344 771.871094 C 494.433594 780.0625 503.835938 785.476563 510.613281 780.152344 C 513.148438 778.160156 516 776.292969 517.832031 773.738281 C 523.808594 765.398438 529.425781 756.796875 535.058594 748.214844 C 535.804688 747.078125 535.839844 745.476563 536.203125 744.085938 C 536.746094 744.3125 537.289063 744.542969 537.832031 744.769531 C 538.09375 746.378906 538.304688 747.996094 538.632813 749.589844 C 539.507813 753.847656 540.011719 758.246094 541.441406 762.316406 C 543.933594 769.425781 549.253906 770.785156 554.488281 765.394531 C 560.386719 759.320313 565.78125 752.734375 571.074219 746.113281 C 575.648438 740.386719 579.765625 734.296875 584.34375 728.015625 C 584.582031 731.0625 584.59375 733.632813 585.007813 736.140625 C 587.445313 750.921875 596.15625 758.59375 611.671875 751.273438 C 616.875 748.820313 621.886719 745.730469 626.488281 742.265625 C 640.601563 731.632813 652.09375 718.371094 663.070313 704.648438 C 665.242188 701.933594 667.363281 699.179688 670.085938 695.699219 C 669.40625 699.515625 668.839844 702.339844 668.410156 705.183594 C 667.671875 710.097656 667.671875 714.941406 669.46875 719.714844 C 672.324219 727.285156 677.765625 730.886719 685.785156 730.109375 C 692.269531 729.480469 698.039063 726.84375 702.273438 722.019531 C 710.589844 712.539063 718.515625 702.71875 726.507813 692.957031 C 728.800781 690.152344 730.765625 687.074219 732.699219 684.371094 C 734.046875 689.066406 735.078125 693.734375 736.722656 698.175781 C 741.335938 710.660156 749.738281 714.210938 761.570313 708.179688 C 766.121094 705.855469 770.433594 702.460938 773.886719 698.671875 C 794.246094 676.320313 810.191406 650.765625 826.265625 625.324219 C 828.140625 622.359375 827.484375 620.53125 824.175781 618.089844 C 823.320313 619.144531 822.628906 620.003906 821.925781 620.859375 C 810.03125 635.390625 798.316406 650.066406 786.183594 664.398438 C 778.46875 673.507813 770.394531 682.375 760.402344 689.160156 C 755.550781 692.453125 752.898438 691.464844 751.328125 685.871094 C 749.59375 679.667969 751.445313 674.042969 754.875 669.03125 "/>
<path style=" stroke:none;fill-rule:nonzero;fill:rgb(100%,100%,100%);fill-opacity:1;" d="M 511.648438 698.605469 C 510.140625 696.246094 508.925781 693.597656 507.015625 691.628906 C 505.761719 690.335938 503.5625 689.683594 501.675781 689.347656 C 498.855469 688.847656 495.921875 688.582031 493.058594 688.726563 C 481.574219 689.308594 470.753906 692.859375 459.945313 696.4375 C 457.078125 697.386719 454.207031 698.332031 450.554688 699.535156 C 451.230469 698.023438 451.394531 697.480469 451.691406 697.019531 C 458.675781 686.054688 465.644531 675.082031 472.679688 664.148438 C 476.046875 658.910156 476.035156 658.582031 470.386719 654.875 C 473.816406 653.535156 476.773438 652.171875 479.855469 651.207031 C 502 644.269531 524.164063 637.394531 546.332031 630.53125 C 551.878906 628.816406 557.472656 627.257813 563.007813 625.515625 C 563.890625 625.234375 564.589844 624.359375 565.371094 623.761719 C 564.730469 623.007813 564.226563 622.035156 563.425781 621.539063 C 555.726563 616.804688 547.59375 613.476563 538.355469 613.089844 C 525.941406 612.566406 513.828125 614.476563 501.882813 617.390625 C 477.34375 623.367188 453.925781 632.5625 430.933594 642.882813 C 425.871094 645.152344 420.867188 647.550781 415.445313 650.070313 C 416.214844 648.238281 416.761719 646.9375 417.691406 644.730469 C 415.101563 645.414063 413.214844 645.554688 411.707031 646.378906 C 405.515625 649.769531 399.28125 653.121094 393.378906 656.976563 C 388.847656 659.929688 384.546875 663.351563 380.601563 667.050781 C 377.097656 670.332031 377.273438 673.386719 380.214844 677.25 C 383.113281 681.058594 387.3125 682.570313 391.632813 681.632813 C 399.425781 679.941406 407.191406 677.851563 414.703125 675.183594 C 428.246094 670.378906 441.59375 665.011719 455.035156 659.917969 C 456.375 659.410156 457.8125 659.160156 459.203125 658.789063 C 459.304688 659.003906 459.40625 659.21875 459.507813 659.433594 C 457.394531 662.035156 455.109375 664.515625 453.203125 667.257813 C 444.128906 680.308594 435.070313 693.375 426.207031 706.574219 C 423.980469 709.894531 421.339844 712.203125 417.675781 713.792969 C 412.480469 716.042969 407.371094 718.554688 402.460938 721.367188 C 398.691406 723.527344 398.363281 726.753906 401.078125 730.132813 C 402.53125 731.9375 404.027344 733.742188 405.738281 735.289063 C 408.003906 737.339844 408.039063 739.164063 406.617188 741.898438 C 399.25 756.042969 394.183594 770.871094 394.691406 787.097656 C 394.761719 789.328125 394.96875 792.265625 396.34375 793.613281 C 400.53125 797.714844 406.046875 798.902344 411.460938 799.109375 C 411.949219 794.78125 412.074219 790.847656 412.90625 787.066406 C 413.773438 783.125 415.171875 779.273438 416.601563 775.480469 C 420.847656 764.191406 425.429688 753.023438 429.46875 741.660156 C 431.613281 735.632813 435.382813 731.558594 441.121094 729.128906 C 462.777344 719.96875 484.453125 710.851563 506.097656 701.664063 C 508.03125 700.84375 509.804688 699.636719 511.648438 698.605469 "/>
<path style=" stroke:none;fill-rule:nonzero;fill:rgb(100%,100%,100%);fill-opacity:1;" d="M 556.441406 667.230469 C 556.066406 668.578125 556.445313 670.726563 557.359375 671.652344 C 558.089844 672.390625 560.476563 672.390625 561.546875 671.75 C 567.546875 668.152344 573.628906 664.605469 579.179688 660.378906 C 585.363281 655.671875 590.285156 649.648438 592.925781 642.1875 C 593.878906 639.492188 593.945313 636.484375 594.488281 633.179688 C 592.15625 630.15625 590.449219 626.890625 587.820313 624.777344 C 583.675781 621.449219 578.820313 623.398438 577.558594 628.574219 C 574.4375 641.359375 567.949219 652.261719 559.453125 662.132813 C 558.171875 663.617188 556.949219 665.386719 556.441406 667.230469 "/>
<path style=" stroke:none;fill-rule:nonzero;fill:rgb(100%,100%,100%);fill-opacity:1;" d="M 707.378906 628.621094 C 707.929688 628.324219 709.164063 627.792969 710.261719 627.054688 C 716.015625 623.164063 719.632813 617.601563 722.253906 611.335938 C 723.761719 607.734375 722.984375 605.652344 720.015625 603.109375 C 717.222656 600.722656 714.488281 601.222656 712.238281 603.441406 C 708.933594 606.691406 705.445313 610 703.117188 613.925781 C 701.300781 616.992188 700.59375 621.007813 700.375 624.65625 C 700.164063 628.148438 703.347656 629.882813 707.378906 628.621094 "/>
</g>
</svg>
